# xmcd
#
# Track frame offsets: 
#        150
#        13549
#        28118
#        37721
#        48307
#        61020
#        73203
#        83588
#
# Disc length: 1371 seconds
#
# Revision: 1
# Processed by: cddbd v1.5.2PL0 Copyright (c) Steve Scherf et al.
# Submitted via: ExactAudioCopy v0.99pb5
#
DISCID=57055908
DTITLE=Eddie Shu Quartet - ...I Only Have Eyes For Shu
DYEAR=1954
DGENRE=Jazz
TTITLE0=It's Sand Man
TTITLE1=Tom, Dick And Jim
TTITLE2=Day By Day
TTITLE3=Blues For Baby
TTITLE4=Peace
TTITLE5=On East Side
TTITLE6=Justice
TTITLE7=Don't Blame Me
EXTD=YEAR: 1954
EXTT0=
EXTT1=
EXTT2=
EXTT3=
EXTT4=
EXTT5=
EXTT6=
EXTT7=
PLAYORDER=
